{"asset":{"generator":"3D Builder","version":"2.0"},"scene":0,"scenes":[{"nodes":[0,1,2,3,4,5]}],"nodes":[{"mesh":0,"matrix":[1,0,0,0,0,-1.1920928955078125E-7,-0.99999988079071045,0,0,0.99999988079071045,-1.1920928955078125E-7,0,-0.60965967178344727,0.20891241729259491,-0.44128000736236572,1]},{"mesh":1,"matrix":[1,0,0,0,0,-1.1920928955078125E-7,-0.99999988079071045,0,0,0.99999988079071045,-1.1920928955078125E-7,0,-0.60965967178344727,0.20891241729259491,-0.44128000736236572,1]},{"mesh":2,"matrix":[1,0,0,0,0,-1.1920928955078125E-7,-0.99999988079071045,0,0,0.99999988079071045,-1.1920928955078125E-7,0,-0.60965967178344727,0.20891241729259491,-0.44128000736236572,1]},{"mesh":3,"matrix":[1,0,0,0,0,-1.1920928955078125E-7,-0.99999988079071045,0,0,0.99999988079071045,-1.1920928955078125E-7,0,-0.60965967178344727,0.20891241729259491,-0.44128000736236572,1]},{"mesh":4,"matrix":[1,0,0,0,0,-1.1920928955078125E-7,-0.99999988079071045,0,0,0.99999988079071045,-1.1920928955078125E-7,0,-0.60965967178344727,0.20891241729259491,-0.44128000736236572,1]},{"mesh":5,"matrix":[1,0,0,0,0,-1.1920928955078125E-7,-0.99999988079071045,0,0,0.99999988079071045,-1.1920928955078125E-7,0,-0.60965967178344727,0.20891241729259491,-0.44128000736236572,1]}],"meshes":[{"primitives":[{"attributes":{"POSITION":0,"TEXCOORD_0":1},"mode":4,"indices":2,"material":0}]},{"primitives":[{"attributes":{"POSITION":3,"TEXCOORD_0":4},"mode":4,"indices":5,"material":1}]},{"primitives":[{"attributes":{"POSITION":6,"TEXCOORD_0":7},"mode":4,"indices":8,"material":2}]},{"primitives":[{"attributes":{"POSITION":9,"TEXCOORD_0":10},"mode":4,"indices":11,"material":2}]},{"primitives":[{"attributes":{"POSITION":12,"TEXCOORD_0":13},"mode":4,"indices":14,"material":2}]},{"primitives":[{"attributes":{"POSITION":15,"TEXCOORD_0":16},"mode":4,"indices":17,"material":2}]}],"materials":[{"pbrMetallicRoughness":{"baseColorFactor":[1,1,1,1],"metallicFactor":1,"roughnessFactor":1,"baseColorTexture":{"index":0,"texCoord":0},"metallicRoughnessTexture":{"index":1,"texCoord":0}},"alphaMode":"OPAQUE"},{"pbrMetallicRoughness":{"baseColorFactor":[1,1,1,1],"metallicFactor":1,"roughnessFactor":1,"baseColorTexture":{"index":2,"texCoord":0},"metallicRoughnessTexture":{"index":3,"texCoord":0}},"alphaMode":"OPAQUE"},{"pbrMetallicRoughness":{"baseColorFactor":[1,1,1,1],"metallicFactor":1,"roughnessFactor":1,"baseColorTexture":{"index":4,"texCoord":0},"metallicRoughnessTexture":{"index":5,"texCoord":0}},"alphaMode":"OPAQUE"}],"textures":[{"source":0,"sampler":0},{"source":1,"sampler":0},{"source":2,"sampler":0},{"source":3,"sampler":0},{"source":4,"sampler":0},{"source":5,"sampler":0}],"images":[{"uri":"textures\\texture_4_6195987693227547908.png"},{"uri":"textures\\texture_5_17319628118832143767.png"},{"uri":"textures\\texture_12_11563080508590297124.png"},{"uri":"textures\\texture_5_17650290037541193437.png"},{"uri":"textures\\texture_0_5628616909738884392.png"},{"uri":"textures\\texture_5_3010182785424325454.png"}],"samplers":[{"magFilter":9729,"wrapS":10497,"wrapT":10497}],"accessors":[{"bufferView":0,"byteOffset":0,"count":12,"componentType":5126,"type":"VEC3","min":[0.4564979076385498,-0.46130156517028809,-0.19976679980754852],"max":[0.76163911819458008,-0.40779966115951538,0.24408517777919769]},{"bufferView":1,"byteOffset":0,"count":12,"componentType":5126,"type":"VEC2"},{"bufferView":2,"byteOffset":0,"count":36,"componentType":5125,"type":"SCALAR"},{"bufferView":3,"byteOffset":0,"count":16,"componentType":5126,"type":"VEC3","min":[0.48388102650642395,-0.47521287202835083,0.1802135705947876],"max":[0.73901629447937012,-0.43912303447723389,0.22583657503128052]},{"bufferView":4,"byteOffset":0,"count":16,"componentType":5126,"type":"VEC2"},{"bufferView":5,"byteOffset":0,"count":36,"componentType":5125,"type":"SCALAR"},{"bufferView":6,"byteOffset":0,"count":12,"componentType":5126,"type":"VEC3","min":[0.44809207320213318,-0.46110904216766357,-0.20020735263824463],"max":[0.45907554030418396,-0.40734720230102539,0.24461203813552856]},{"bufferView":7,"byteOffset":0,"count":12,"componentType":5126,"type":"VEC2"},{"bufferView":8,"byteOffset":0,"count":36,"componentType":5125,"type":"SCALAR"},{"bufferView":9,"byteOffset":0,"count":16,"componentType":5126,"type":"VEC3","min":[0.44809210300445557,-0.46131697297096252,0.2430901825428009],"max":[0.77132558822631836,-0.4075520932674408,0.25179538130760193]},{"bufferView":10,"byteOffset":0,"count":16,"componentType":5126,"type":"VEC2"},{"bufferView":11,"byteOffset":0,"count":36,"componentType":5125,"type":"SCALAR"},{"bufferView":12,"byteOffset":0,"count":12,"componentType":5126,"type":"VEC3","min":[0.76163911819458008,-0.46103504300117493,-0.2000984251499176],"max":[0.771109938621521,-0.4074690043926239,0.24447381496429443]},{"bufferView":13,"byteOffset":0,"count":12,"componentType":5126,"type":"VEC2"},{"bufferView":14,"byteOffset":0,"count":36,"componentType":5125,"type":"SCALAR"},{"bufferView":15,"byteOffset":0,"count":16,"componentType":5126,"type":"VEC3","min":[0.44799384474754333,-0.46131691336631775,-0.20891252160072327],"max":[0.77122735977172852,-0.4075520932674408,-0.20020732283592224]},{"bufferView":16,"byteOffset":0,"count":16,"componentType":5126,"type":"VEC2"},{"bufferView":17,"byteOffset":0,"count":36,"componentType":5125,"type":"SCALAR"}],"bufferViews":[{"buffer":0,"byteOffset":0,"byteLength":144,"byteStride":12,"target":34962},{"buffer":0,"byteOffset":144,"byteLength":96,"byteStride":8,"target":34962},{"buffer":0,"byteOffset":240,"byteLength":144,"target":34963},{"buffer":0,"byteOffset":384,"byteLength":192,"byteStride":12,"target":34962},{"buffer":0,"byteOffset":576,"byteLength":128,"byteStride":8,"target":34962},{"buffer":0,"byteOffset":704,"byteLength":144,"target":34963},{"buffer":0,"byteOffset":848,"byteLength":144,"byteStride":12,"target":34962},{"buffer":0,"byteOffset":992,"byteLength":96,"byteStride":8,"target":34962},{"buffer":0,"byteOffset":1088,"byteLength":144,"target":34963},{"buffer":0,"byteOffset":1232,"byteLength":192,"byteStride":12,"target":34962},{"buffer":0,"byteOffset":1424,"byteLength":128,"byteStride":8,"target":34962},{"buffer":0,"byteOffset":1552,"byteLength":144,"target":34963},{"buffer":0,"byteOffset":1696,"byteLength":144,"byteStride":12,"target":34962},{"buffer":0,"byteOffset":1840,"byteLength":96,"byteStride":8,"target":34962},{"buffer":0,"byteOffset":1936,"byteLength":144,"target":34963},{"buffer":0,"byteOffset":2080,"byteLength":192,"byteStride":12,"target":34962},{"buffer":0,"byteOffset":2272,"byteLength":128,"byteStride":8,"target":34962},{"buffer":0,"byteOffset":2400,"byteLength":144,"target":34963}],"buffers":[{"byteLength":2544,"uri":"CVImage.bin"}]}