{"asset":{"generator":"3D Builder","version":"2.0"},"scene":0,"scenes":[{"nodes":[0,3,4,5]}],"nodes":[{"children":[1,2]},{"mesh":0,"matrix":[1,0,0,0,0,-1.1920928955078125E-7,-0.99999988079071045,0,0,0.99999988079071045,-1.1920928955078125E-7,0,-0.14684098958969116,0.16838780045509338,-0.17206555604934692,1]},{"mesh":1,"matrix":[1,0,0,0,0,-1.1920928955078125E-7,-0.99999988079071045,0,0,0.99999988079071045,-1.1920928955078125E-7,0,-0.14684098958969116,0.16838780045509338,-0.17206555604934692,1]},{"mesh":2,"matrix":[1,0,0,0,0,-1.1920928955078125E-7,-0.99999988079071045,0,0,0.99999988079071045,-1.1920928955078125E-7,0,-0.14684098958969116,0.16838780045509338,-0.17206555604934692,1]},{"mesh":3,"matrix":[1,0,0,0,0,-1.1920928955078125E-7,-0.99999988079071045,0,0,0.99999988079071045,-1.1920928955078125E-7,0,-0.14684098958969116,0.16838780045509338,-0.17206555604934692,1]},{"children":[6,7]},{"mesh":4,"matrix":[1,0,0,0,0,-1.1920928955078125E-7,-0.99999988079071045,0,0,0.99999988079071045,-1.1920928955078125E-7,0,-0.14684098958969116,0.16838780045509338,-0.17206555604934692,1]},{"mesh":5,"matrix":[1,0,0,0,0,-1.1920928955078125E-7,-0.99999988079071045,0,0,0.99999988079071045,-1.1920928955078125E-7,0,-0.14684098958969116,0.16838780045509338,-0.17206555604934692,1]}],"meshes":[{"primitives":[{"attributes":{"POSITION":0,"TEXCOORD_0":1},"mode":4,"indices":2,"material":0}]},{"primitives":[{"attributes":{"POSITION":3,"TEXCOORD_0":4},"mode":4,"indices":5,"material":0}]},{"primitives":[{"attributes":{"POSITION":6,"TEXCOORD_0":7},"mode":4,"indices":8,"material":1}]},{"primitives":[{"attributes":{"POSITION":9,"TEXCOORD_0":10},"mode":4,"indices":11,"material":2}]},{"primitives":[{"attributes":{"POSITION":12,"TEXCOORD_0":13},"mode":4,"indices":14,"material":0}]},{"primitives":[{"attributes":{"POSITION":15,"TEXCOORD_0":16},"mode":4,"indices":17,"material":0}]}],"materials":[{"pbrMetallicRoughness":{"baseColorFactor":[1,1,1,1],"metallicFactor":1,"roughnessFactor":1,"baseColorTexture":{"index":0,"texCoord":0},"metallicRoughnessTexture":{"index":1,"texCoord":0}},"alphaMode":"OPAQUE"},{"pbrMetallicRoughness":{"baseColorFactor":[1,1,1,1],"metallicFactor":1,"roughnessFactor":1,"baseColorTexture":{"index":2,"texCoord":0},"metallicRoughnessTexture":{"index":3,"texCoord":0}},"alphaMode":"OPAQUE"},{"pbrMetallicRoughness":{"baseColorFactor":[1,1,1,1],"metallicFactor":1,"roughnessFactor":1,"baseColorTexture":{"index":4,"texCoord":0},"metallicRoughnessTexture":{"index":5,"texCoord":0}},"alphaMode":"OPAQUE"}],"textures":[{"source":0,"sampler":0},{"source":1,"sampler":0},{"source":2,"sampler":0},{"source":3,"sampler":0},{"source":4,"sampler":0},{"source":5,"sampler":0}],"images":[{"uri":"textures\\texture_8_17026833529806663332.png"},{"uri":"textures\\texture_9_17618312742380616759.png"},{"uri":"textures\\texture_0_6195987693227547908.png"},{"uri":"textures\\texture_1_17319628118832143767.png"},{"uri":"textures\\texture_4_11563080508590297124.png"},{"uri":"textures\\texture_5_12154559721164250551.png"}],"samplers":[{"magFilter":9729,"wrapS":10497,"wrapT":10497}],"accessors":[{"bufferView":0,"byteOffset":0,"count":2817,"componentType":5126,"type":"VEC3","min":[0.42520499229431152,-0.25547736883163452,0.066207475960254669],"max":[0.52473783493041992,-0.16236889362335205,0.19408956170082092]},{"bufferView":1,"byteOffset":0,"count":2817,"componentType":5126,"type":"VEC2"},{"bufferView":2,"byteOffset":0,"count":15990,"componentType":5125,"type":"SCALAR"},{"bufferView":3,"byteOffset":0,"count":297,"componentType":5126,"type":"VEC3","min":[0.47233662009239197,-0.20942015945911407,-0.11215033382177353],"max":[0.47723373770713806,-0.20383220911026,0.072177760303020477]},{"bufferView":4,"byteOffset":0,"count":297,"componentType":5126,"type":"VEC2"},{"bufferView":5,"byteOffset":0,"count":1500,"componentType":5125,"type":"SCALAR"},{"bufferView":6,"byteOffset":0,"count":7782,"componentType":5126,"type":"VEC3","min":[-0.23449921607971191,-0.19155557453632355,0.2042529433965683],"max":[0.54968202114105225,-0.17009933292865753,0.36156061291694641]},{"bufferView":7,"byteOffset":0,"count":7782,"componentType":5126,"type":"VEC2"},{"bufferView":8,"byteOffset":0,"count":47052,"componentType":5125,"type":"SCALAR"},{"bufferView":9,"byteOffset":0,"count":15193,"componentType":5126,"type":"VEC3","min":[-0.096289217472076416,-0.40232992172241211,-0.10624657571315765],"max":[0.36423951387405396,0.058198794722557068,0.18946732580661774]},{"bufferView":10,"byteOffset":0,"count":15193,"componentType":5126,"type":"VEC2"},{"bufferView":11,"byteOffset":0,"count":80946,"componentType":5125,"type":"SCALAR"},{"bufferView":12,"byteOffset":0,"count":2817,"componentType":5126,"type":"VEC3","min":[-0.25600007176399231,-0.24783444404602051,0.038070753216743469],"max":[-0.1407855749130249,-0.14005646109580994,0.18610101938247681]},{"bufferView":13,"byteOffset":0,"count":2817,"componentType":5126,"type":"VEC2"},{"bufferView":14,"byteOffset":0,"count":15990,"componentType":5125,"type":"SCALAR"},{"bufferView":15,"byteOffset":0,"count":297,"componentType":5126,"type":"VEC3","min":[-0.20144274830818176,-0.19452078640460968,-0.16838783025741577],"max":[-0.19577407836914063,-0.18805244565010071,0.044981673359870911]},{"bufferView":16,"byteOffset":0,"count":297,"componentType":5126,"type":"VEC2"},{"bufferView":17,"byteOffset":0,"count":1500,"componentType":5125,"type":"SCALAR"}],"bufferViews":[{"buffer":0,"byteOffset":0,"byteLength":33804,"byteStride":12,"target":34962},{"buffer":0,"byteOffset":33804,"byteLength":22536,"byteStride":8,"target":34962},{"buffer":0,"byteOffset":56340,"byteLength":63960,"target":34963},{"buffer":0,"byteOffset":120300,"byteLength":3564,"byteStride":12,"target":34962},{"buffer":0,"byteOffset":123864,"byteLength":2376,"byteStride":8,"target":34962},{"buffer":0,"byteOffset":126240,"byteLength":6000,"target":34963},{"buffer":0,"byteOffset":132240,"byteLength":93384,"byteStride":12,"target":34962},{"buffer":0,"byteOffset":225624,"byteLength":62256,"byteStride":8,"target":34962},{"buffer":0,"byteOffset":287880,"byteLength":188208,"target":34963},{"buffer":0,"byteOffset":476088,"byteLength":182316,"byteStride":12,"target":34962},{"buffer":0,"byteOffset":658404,"byteLength":121544,"byteStride":8,"target":34962},{"buffer":0,"byteOffset":779948,"byteLength":323784,"target":34963},{"buffer":0,"byteOffset":1103732,"byteLength":33804,"byteStride":12,"target":34962},{"buffer":0,"byteOffset":1137536,"byteLength":22536,"byteStride":8,"target":34962},{"buffer":0,"byteOffset":1160072,"byteLength":63960,"target":34963},{"buffer":0,"byteOffset":1224032,"byteLength":3564,"byteStride":12,"target":34962},{"buffer":0,"byteOffset":1227596,"byteLength":2376,"byteStride":8,"target":34962},{"buffer":0,"byteOffset":1229972,"byteLength":6000,"target":34963}],"buffers":[{"byteLength":1235972,"uri":"MattBirthday.bin"}]}