{"asset":{"generator":"3D Builder","version":"2.0"},"scene":0,"scenes":[{"nodes":[0,1,4,7]}],"nodes":[{"mesh":0,"matrix":[1,0,0,0,0,-1.1920928955078125E-7,-0.99999988079071045,0,0,0.99999988079071045,-1.1920928955078125E-7,0,-0.9169195294380188,0.26124477386474609,-0.14141160249710083,1]},{"children":[2,3]},{"mesh":1,"matrix":[1,0,0,0,0,-1.1920928955078125E-7,-0.99999988079071045,0,0,0.99999988079071045,-1.1920928955078125E-7,0,-0.9169195294380188,0.26124477386474609,-0.14141160249710083,1]},{"mesh":2,"matrix":[1,0,0,0,0,-1.1920928955078125E-7,-0.99999988079071045,0,0,0.99999988079071045,-1.1920928955078125E-7,0,-0.9169195294380188,0.26124477386474609,-0.14141160249710083,1]},{"children":[5,6]},{"mesh":3,"matrix":[1,0,0,0,0,-1.1920928955078125E-7,-0.99999988079071045,0,0,0.99999988079071045,-1.1920928955078125E-7,0,-0.9169195294380188,0.26124477386474609,-0.14141160249710083,1]},{"mesh":4,"matrix":[1,0,0,0,0,-1.1920928955078125E-7,-0.99999988079071045,0,0,0.99999988079071045,-1.1920928955078125E-7,0,-0.9169195294380188,0.26124477386474609,-0.14141160249710083,1]},{"mesh":5,"matrix":[1,0,0,0,0,-1.1920928955078125E-7,-0.99999988079071045,0,0,0.99999988079071045,-1.1920928955078125E-7,0,-0.9169195294380188,0.26124477386474609,-0.14141160249710083,1]}],"meshes":[{"primitives":[{"attributes":{"POSITION":0,"TEXCOORD_0":1},"mode":4,"indices":2,"material":0}]},{"primitives":[{"attributes":{"POSITION":3,"TEXCOORD_0":4},"mode":4,"indices":5,"material":1}]},{"primitives":[{"attributes":{"POSITION":6,"TEXCOORD_0":7},"mode":4,"indices":8,"material":1}]},{"primitives":[{"attributes":{"POSITION":9,"TEXCOORD_0":10},"mode":4,"indices":11,"material":1}]},{"primitives":[{"attributes":{"POSITION":12,"TEXCOORD_0":13},"mode":4,"indices":14,"material":1}]},{"primitives":[{"attributes":{"POSITION":15,"TEXCOORD_0":16},"mode":4,"indices":17,"material":2}]}],"materials":[{"pbrMetallicRoughness":{"baseColorFactor":[1,1,1,1],"metallicFactor":1,"roughnessFactor":1,"baseColorTexture":{"index":0,"texCoord":0},"metallicRoughnessTexture":{"index":1,"texCoord":0}},"alphaMode":"OPAQUE"},{"pbrMetallicRoughness":{"baseColorFactor":[1,1,1,1],"metallicFactor":1,"roughnessFactor":1,"baseColorTexture":{"index":2,"texCoord":0},"metallicRoughnessTexture":{"index":3,"texCoord":0}},"alphaMode":"OPAQUE"},{"pbrMetallicRoughness":{"baseColorFactor":[1,1,1,1],"metallicFactor":1,"roughnessFactor":1,"baseColorTexture":{"index":4,"texCoord":0},"metallicRoughnessTexture":{"index":5,"texCoord":0}},"alphaMode":"OPAQUE"}],"textures":[{"source":0,"sampler":0},{"source":1,"sampler":0},{"source":2,"sampler":0},{"source":3,"sampler":0},{"source":4,"sampler":0},{"source":5,"sampler":0}],"images":[{"uri":"textures\\texture_0_6195987693227547908.png"},{"uri":"textures\\texture_1_17319628118832143767.png"},{"uri":"textures\\texture_4_11563080508590297124.png"},{"uri":"textures\\texture_5_12154559721164250551.png"},{"uri":"textures\\texture_8_17026833529806663332.png"},{"uri":"textures\\texture_9_17618312742380616759.png"}],"samplers":[{"magFilter":9729,"wrapS":10497,"wrapT":10497}],"accessors":[{"bufferView":0,"byteOffset":0,"count":7782,"componentType":5126,"type":"VEC3","min":[0.36546507477760315,-0.15503674745559692,-0.022477388381958008],"max":[1.4744200706481934,-0.140036478638649,0.087497010827064514]},{"bufferView":1,"byteOffset":0,"count":7782,"componentType":5126,"type":"VEC2"},{"bufferView":2,"byteOffset":0,"count":47052,"componentType":5125,"type":"SCALAR"},{"bufferView":3,"byteOffset":0,"count":2817,"componentType":5126,"type":"VEC3","min":[0.24686907231807709,-0.20567618310451508,0.052071347832679749],"max":[0.34738972783088684,-0.11164362728595734,0.18122261762619019]},{"bufferView":4,"byteOffset":0,"count":2817,"componentType":5126,"type":"VEC2"},{"bufferView":5,"byteOffset":0,"count":15990,"componentType":5125,"type":"SCALAR"},{"bufferView":6,"byteOffset":0,"count":297,"componentType":5126,"type":"VEC3","min":[0.2944684624671936,-0.15916186571121216,-0.12805661559104919],"max":[0.29941418766975403,-0.15351845324039459,0.058100879192352295]},{"bufferView":7,"byteOffset":0,"count":297,"componentType":5126,"type":"VEC2"},{"bufferView":8,"byteOffset":0,"count":1500,"componentType":5125,"type":"SCALAR"},{"bufferView":9,"byteOffset":0,"count":2817,"componentType":5126,"type":"VEC3","min":[1.4864492416381836,-0.19972525537014008,0.073899105191230774],"max":[1.5869699716567993,-0.10569269955158234,0.20305037498474121]},{"bufferView":10,"byteOffset":0,"count":2817,"componentType":5126,"type":"VEC2"},{"bufferView":11,"byteOffset":0,"count":15990,"componentType":5125,"type":"SCALAR"},{"bufferView":12,"byteOffset":0,"count":297,"componentType":5126,"type":"VEC3","min":[1.5340486764907837,-0.15321093797683716,-0.10622885823249817],"max":[1.5389944314956665,-0.14756752550601959,0.07992863655090332]},{"bufferView":13,"byteOffset":0,"count":297,"componentType":5126,"type":"VEC2"},{"bufferView":14,"byteOffset":0,"count":1500,"componentType":5125,"type":"SCALAR"},{"bufferView":15,"byteOffset":0,"count":15193,"componentType":5126,"type":"VEC3","min":[0.70819401741027832,-0.30239027738571167,-0.26124483346939087],"max":[1.0301513671875,0.019567087292671204,-0.054510131478309631]},{"bufferView":16,"byteOffset":0,"count":15193,"componentType":5126,"type":"VEC2"},{"bufferView":17,"byteOffset":0,"count":80946,"componentType":5125,"type":"SCALAR"}],"bufferViews":[{"buffer":0,"byteOffset":0,"byteLength":93384,"byteStride":12,"target":34962},{"buffer":0,"byteOffset":93384,"byteLength":62256,"byteStride":8,"target":34962},{"buffer":0,"byteOffset":155640,"byteLength":188208,"target":34963},{"buffer":0,"byteOffset":343848,"byteLength":33804,"byteStride":12,"target":34962},{"buffer":0,"byteOffset":377652,"byteLength":22536,"byteStride":8,"target":34962},{"buffer":0,"byteOffset":400188,"byteLength":63960,"target":34963},{"buffer":0,"byteOffset":464148,"byteLength":3564,"byteStride":12,"target":34962},{"buffer":0,"byteOffset":467712,"byteLength":2376,"byteStride":8,"target":34962},{"buffer":0,"byteOffset":470088,"byteLength":6000,"target":34963},{"buffer":0,"byteOffset":476088,"byteLength":33804,"byteStride":12,"target":34962},{"buffer":0,"byteOffset":509892,"byteLength":22536,"byteStride":8,"target":34962},{"buffer":0,"byteOffset":532428,"byteLength":63960,"target":34963},{"buffer":0,"byteOffset":596388,"byteLength":3564,"byteStride":12,"target":34962},{"buffer":0,"byteOffset":599952,"byteLength":2376,"byteStride":8,"target":34962},{"buffer":0,"byteOffset":602328,"byteLength":6000,"target":34963},{"buffer":0,"byteOffset":608328,"byteLength":182316,"byteStride":12,"target":34962},{"buffer":0,"byteOffset":790644,"byteLength":121544,"byteStride":8,"target":34962},{"buffer":0,"byteOffset":912188,"byteLength":323784,"target":34963}],"buffers":[{"byteLength":1235972,"uri":"MattBirthday.bin"}]}