{"asset":{"generator":"3D Builder","version":"2.0"},"scene":0,"scenes":[{"nodes":[0,3,4,7]}],"nodes":[{"children":[1,2]},{"mesh":0,"matrix":[1,0,0,0,0,-1.1920928955078125E-7,-0.99999988079071045,0,0,0.99999988079071045,-1.1920928955078125E-7,0,0.014805709011852741,0.1052924245595932,-0.25599902868270874,1]},{"mesh":1,"matrix":[1,0,0,0,0,-1.1920928955078125E-7,-0.99999988079071045,0,0,0.99999988079071045,-1.1920928955078125E-7,0,0.014805709011852741,0.1052924245595932,-0.25599902868270874,1]},{"mesh":2,"matrix":[1,0,0,0,0,-1.1920928955078125E-7,-0.99999988079071045,0,0,0.99999988079071045,-1.1920928955078125E-7,0,0.014805709011852741,0.1052924245595932,-0.25599902868270874,1]},{"children":[5,6]},{"mesh":3,"matrix":[1,0,0,0,0,-1.1920928955078125E-7,-0.99999988079071045,0,0,0.99999988079071045,-1.1920928955078125E-7,0,0.014805709011852741,0.1052924245595932,-0.25599902868270874,1]},{"mesh":4,"matrix":[1,0,0,0,0,-1.1920928955078125E-7,-0.99999988079071045,0,0,0.99999988079071045,-1.1920928955078125E-7,0,0.014805709011852741,0.1052924245595932,-0.25599902868270874,1]},{"mesh":5,"matrix":[1,0,0,0,0,-1.1920928955078125E-7,-0.99999988079071045,0,0,0.99999988079071045,-1.1920928955078125E-7,0,0.014805709011852741,0.1052924245595932,-0.25599902868270874,1]}],"meshes":[{"primitives":[{"attributes":{"POSITION":0,"TEXCOORD_0":1},"mode":4,"indices":2,"material":0}]},{"primitives":[{"attributes":{"POSITION":3,"TEXCOORD_0":4},"mode":4,"indices":5,"material":0}]},{"primitives":[{"attributes":{"POSITION":6,"TEXCOORD_0":7},"mode":4,"indices":8,"material":1}]},{"primitives":[{"attributes":{"POSITION":9,"TEXCOORD_0":10},"mode":4,"indices":11,"material":0}]},{"primitives":[{"attributes":{"POSITION":12,"TEXCOORD_0":13},"mode":4,"indices":14,"material":0}]},{"primitives":[{"attributes":{"POSITION":15,"TEXCOORD_0":16},"mode":4,"indices":17,"material":2}]}],"materials":[{"pbrMetallicRoughness":{"baseColorFactor":[1,1,1,1],"metallicFactor":1,"roughnessFactor":1,"baseColorTexture":{"index":0,"texCoord":0},"metallicRoughnessTexture":{"index":1,"texCoord":0}},"alphaMode":"OPAQUE"},{"pbrMetallicRoughness":{"baseColorFactor":[1,1,1,1],"metallicFactor":1,"roughnessFactor":1,"baseColorTexture":{"index":2,"texCoord":0},"metallicRoughnessTexture":{"index":3,"texCoord":0}},"alphaMode":"OPAQUE"},{"pbrMetallicRoughness":{"baseColorFactor":[1,1,1,1],"metallicFactor":1,"roughnessFactor":1,"baseColorTexture":{"index":4,"texCoord":0},"metallicRoughnessTexture":{"index":5,"texCoord":0}},"alphaMode":"OPAQUE"}],"textures":[{"source":0,"sampler":0},{"source":1,"sampler":0},{"source":2,"sampler":0},{"source":3,"sampler":0},{"source":4,"sampler":0},{"source":5,"sampler":0}],"images":[{"uri":"textures\\texture_4_11563080508590297124.png"},{"uri":"textures\\texture_5_12154559721164250551.png"},{"uri":"textures\\texture_0_6195987693227547908.png"},{"uri":"textures\\texture_1_17319628118832143767.png"},{"uri":"textures\\texture_8_17026833529806663332.png"},{"uri":"textures\\texture_9_17618312742380616759.png"}],"samplers":[{"magFilter":9729,"wrapS":10497,"wrapT":10497}],"accessors":[{"bufferView":0,"byteOffset":0,"count":2817,"componentType":5126,"type":"VEC3","min":[0.0595453679561615,-0.27827835083007813,-0.042632032185792923],"max":[0.086130604147911072,-0.25340908765792847,-0.00847470760345459]},{"bufferView":1,"byteOffset":0,"count":2817,"componentType":5126,"type":"VEC2"},{"bufferView":2,"byteOffset":0,"count":15990,"componentType":5125,"type":"SCALAR"},{"bufferView":3,"byteOffset":0,"count":297,"componentType":5126,"type":"VEC3","min":[0.072134234011173248,-0.26597645878791809,-0.090271435678005219],"max":[0.0734422504901886,-0.26448392868041992,-0.041037369519472122]},{"bufferView":4,"byteOffset":0,"count":297,"componentType":5126,"type":"VEC2"},{"bufferView":5,"byteOffset":0,"count":1500,"componentType":5125,"type":"SCALAR"},{"bufferView":6,"byteOffset":0,"count":7782,"componentType":5126,"type":"VEC3","min":[-0.11666173487901688,-0.26120483875274658,-0.0057600690051913261],"max":[0.092793196439743042,-0.25547388195991516,0.036256834864616394]},{"bufferView":7,"byteOffset":0,"count":7782,"componentType":5126,"type":"VEC2"},{"bufferView":8,"byteOffset":0,"count":47052,"componentType":5125,"type":"SCALAR"},{"bufferView":9,"byteOffset":0,"count":2817,"componentType":5126,"type":"VEC3","min":[-0.12240462005138397,-0.27623692154884338,-0.050147347152233124],"max":[-0.091630809009075165,-0.24744939804077148,-0.01060844212770462]},{"bufferView":10,"byteOffset":0,"count":2817,"componentType":5126,"type":"VEC2"},{"bufferView":11,"byteOffset":0,"count":15990,"componentType":5125,"type":"SCALAR"},{"bufferView":12,"byteOffset":0,"count":297,"componentType":5126,"type":"VEC3","min":[-0.10783234983682632,-0.26199683547019958,-0.10529246926307678],"max":[-0.10631825029850006,-0.26026913523674011,-0.048301439732313156]},{"bufferView":13,"byteOffset":0,"count":297,"componentType":5126,"type":"VEC2"},{"bufferView":14,"byteOffset":0,"count":1500,"componentType":5125,"type":"SCALAR"},{"bufferView":15,"byteOffset":0,"count":15193,"componentType":5126,"type":"VEC3","min":[-0.0797458216547966,-0.31750267744064331,-0.088694542646408081],"max":[0.04326147586107254,-0.19449539482593536,-0.0097093060612678528]},{"bufferView":16,"byteOffset":0,"count":15193,"componentType":5126,"type":"VEC2"},{"bufferView":17,"byteOffset":0,"count":80946,"componentType":5125,"type":"SCALAR"}],"bufferViews":[{"buffer":0,"byteOffset":0,"byteLength":33804,"byteStride":12,"target":34962},{"buffer":0,"byteOffset":33804,"byteLength":22536,"byteStride":8,"target":34962},{"buffer":0,"byteOffset":56340,"byteLength":63960,"target":34963},{"buffer":0,"byteOffset":120300,"byteLength":3564,"byteStride":12,"target":34962},{"buffer":0,"byteOffset":123864,"byteLength":2376,"byteStride":8,"target":34962},{"buffer":0,"byteOffset":126240,"byteLength":6000,"target":34963},{"buffer":0,"byteOffset":132240,"byteLength":93384,"byteStride":12,"target":34962},{"buffer":0,"byteOffset":225624,"byteLength":62256,"byteStride":8,"target":34962},{"buffer":0,"byteOffset":287880,"byteLength":188208,"target":34963},{"buffer":0,"byteOffset":476088,"byteLength":33804,"byteStride":12,"target":34962},{"buffer":0,"byteOffset":509892,"byteLength":22536,"byteStride":8,"target":34962},{"buffer":0,"byteOffset":532428,"byteLength":63960,"target":34963},{"buffer":0,"byteOffset":596388,"byteLength":3564,"byteStride":12,"target":34962},{"buffer":0,"byteOffset":599952,"byteLength":2376,"byteStride":8,"target":34962},{"buffer":0,"byteOffset":602328,"byteLength":6000,"target":34963},{"buffer":0,"byteOffset":608328,"byteLength":182316,"byteStride":12,"target":34962},{"buffer":0,"byteOffset":790644,"byteLength":121544,"byteStride":8,"target":34962},{"buffer":0,"byteOffset":912188,"byteLength":323784,"target":34963}],"buffers":[{"byteLength":1235972,"uri":"MattBirthday.bin"}]}